<svg width="24" height="24" fill="none" xmlns="http://www.w3.org/2000/svg"><g clip-path="url(#clip0)"><path d="M11.825 24c6.52 0 11.824-5.383 11.824-12 0-1.142-.157-2.268-.468-3.345a.982.982 0 00-1.223-.68 1.004 1.004 0 00-.669 1.241c.258.896.39 1.833.39 2.784 0 5.514-4.421 10-9.854 10C6.39 22 1.97 17.514 1.97 12S6.39 2 11.825 2c1.974 0 3.874.586 5.493 1.694a.976.976 0 001.368-.27 1.01 1.01 0 00-.266-1.388A11.63 11.63 0 0011.824 0C5.305 0 0 5.383 0 12s5.305 12 11.825 12z" fill="url(#paint0_linear)"/><path d="M21.967 2.293L11.825 12.586 8.58 9.293a.975.975 0 00-1.394 0 1.01 1.01 0 000 1.414l3.942 4a.974.974 0 001.393 0l10.84-11a1.01 1.01 0 000-1.414.975.975 0 00-1.394 0z" fill="url(#paint1_linear)"/></g><defs><linearGradient id="paint0_linear" x1="23.649" y1="0" x2="-.675" y2=".704" gradientUnits="userSpaceOnUse"><stop stop-color="#2FE99C"/><stop offset="1" stop-color="#33B8B6"/></linearGradient><linearGradient id="paint1_linear" x1="23.649" y1="2" x2="6.43" y2="2.652" gradientUnits="userSpaceOnUse"><stop stop-color="#2FE99C"/><stop offset="1" stop-color="#33B8B6"/></linearGradient><clipPath id="clip0"><path fill="#fff" d="M0 0h23.649v24H0z"/></clipPath></defs></svg>