<svg width="62" height="62" fill="none" xmlns="http://www.w3.org/2000/svg"><path d="M0 41.333a5.161 5.161 0 008.014 4.308l8.344 8.342a5.165 5.165 0 109.372 3.88h10.541a5.163 5.163 0 004.815 4.131 5.167 5.167 0 004.556-8.011l4.495-4.494-1.46-1.461-4.496 4.494a5.164 5.164 0 00-7.91 3.274H25.73a5.178 5.178 0 00-2.224-3.28l.6-1.502-1.918-.767-.6 1.5a5.142 5.142 0 00-3.768.775L9.476 44.18a5.138 5.138 0 00.775-3.766l7.7-3.08-.767-1.918-7.703 3.08A5.18 5.18 0 006.2 36.272V25.734a5.18 5.18 0 003.28-2.224l7.703 3.08.768-1.918-7.701-3.08a5.137 5.137 0 00-.775-3.766l6.432-6.43-1.46-1.462-6.433 6.43a5.167 5.167 0 00-7.409 6.733 5.164 5.164 0 003.528 2.637v10.539A5.176 5.176 0 000 41.333zM41.333 53.73a3.1 3.1 0 012.192 5.29 3.1 3.1 0 01-5.292-2.19 3.102 3.102 0 013.1-3.1zm-20.666 0a3.1 3.1 0 012.192 5.29 3.1 3.1 0 01-5.292-2.19 3.102 3.102 0 013.1-3.1zm-18.6-33.058a3.099 3.099 0 116.197 0 3.099 3.099 0 01-6.197 0zm3.1 17.562a3.1 3.1 0 110 6.2 3.1 3.1 0 010-6.2zM62 20.672a5.162 5.162 0 00-8.014-4.307l-8.344-8.342A5.164 5.164 0 0038.908.616a5.164 5.164 0 00-2.637 3.527H25.73A5.17 5.17 0 0018.7.386a5.172 5.172 0 00-2.372 7.61 5.172 5.172 0 005.26 2.262l.6 1.5 1.919-.767-.602-1.502a5.178 5.178 0 002.225-3.28h10.541a5.178 5.178 0 002.224 3.28l-1.014 2.535 1.919.768 1.014-2.534a5.141 5.141 0 003.767-.775l8.344 8.342a5.138 5.138 0 00-.775 3.767l-7.7 3.079.767 1.918 7.702-3.08a5.177 5.177 0 003.281 2.225v10.539a5.18 5.18 0 00-3.28 2.223l-3.053-1.22-.767 1.918 3.05 1.22a5.138 5.138 0 00.775 3.766l-2.04 2.04 1.46 1.462 2.042-2.04a5.167 5.167 0 008.006-4.558 5.163 5.163 0 00-4.126-4.812V25.734A5.176 5.176 0 0062 20.672zM20.667 8.276a3.1 3.1 0 01-2.192-5.291 3.1 3.1 0 015.292 2.191 3.102 3.102 0 01-3.1 3.1zm20.666 0a3.1 3.1 0 01-2.192-5.291 3.1 3.1 0 112.192 5.29zm18.6 33.057a3.099 3.099 0 01-5.292 2.192 3.1 3.1 0 115.292-2.192zm-3.1-17.562a3.1 3.1 0 01-2.192-5.29 3.1 3.1 0 015.292 2.191 3.102 3.102 0 01-3.1 3.1zM21.7 21.705v23.76a2.069 2.069 0 002.067 2.067h11.366v2.066H23.767a4.139 4.139 0 01-4.134-4.132v-23.76H21.7zM45.467 46.5V35.21a4.104 4.104 0 00-1.21-2.923l-1.89-1.888v7.408l1.764 1.764-1.462 1.46-2.066-2.065-3.492-3.49a1.16 1.16 0 00-1.638 1.637l3.491 3.49a1.033 1.033 0 01.13 1.304 5.397 5.397 0 00-.337 5.396l.4.8c.073.144.11.302.11.463v1.033H37.2v-.79l-.291-.582a7.47 7.47 0 01.03-6.725l-2.928-2.928a3.224 3.224 0 014.562-4.56L40.3 35.74V17.573a2.068 2.068 0 00-2.067-2.066h-2.461l-.748 1.495a1.034 1.034 0 01-.924.571h-6.2a1.035 1.035 0 01-.924-.571l-.748-1.495h-2.461a2.07 2.07 0 00-2.067 2.066v2.066h-2.067v-2.066a4.137 4.137 0 014.134-4.132h14.466a4.139 4.139 0 014.134 4.132v9.903l3.35 3.35a6.157 6.157 0 011.816 4.382v11.29h-2.066zm-16.534-3.1h4.134v2.067h-4.134V43.4zm4.437-12.7a3.355 3.355 0 00-4.738 0l-1.462-1.46a5.424 5.424 0 017.662 0L33.37 30.7zm3.1-2.598a7.735 7.735 0 00-10.938 0l-1.462-1.46a9.814 9.814 0 0113.862 0l-1.462 1.46zm-4.436 6v2.066h-2.066v-2.066h2.066zm-6.2 0H27.9v2.066h-2.067v-2.066z" fill="url(#paint0_linear)"/><defs><linearGradient id="paint0_linear" x1="62" y1="0" x2="-1.767" y2="1.874" gradientUnits="userSpaceOnUse"><stop stop-color="#2FE99C"/><stop offset="1" stop-color="#33B8B6"/></linearGradient></defs></svg>