<svg width="60" height="63" fill="none" xmlns="http://www.w3.org/2000/svg"><path d="M7.765 53.363a4.814 4.814 0 00-3.512-.812 4.955 4.955 0 00-3.124 1.871A5.428 5.428 0 00.007 58.01c.062 1.3.582 2.53 1.459 3.451a4.898 4.898 0 003.287 1.532 4.85 4.85 0 003.417-1.178 5.32 5.32 0 001.782-3.28 5.466 5.466 0 00-.774-3.688l5.829-6.12v9.012a5.39 5.39 0 001.465 3.71 4.886 4.886 0 003.532 1.538h16.993v-2.1H20.004a2.932 2.932 0 01-2.12-.922 3.234 3.234 0 01-.878-2.226V46.63l6.704-7.04-1.414-1.484-5.29 5.555v-6.692l2.303-.774-.609-2-1.694.57v-6.528l5.692 1.913.61-2-6.302-2.117v-5.028h-2v4.356L9.98 23.67a5.453 5.453 0 00-.918-3.65 4.992 4.992 0 00-3.013-2.063 4.8 4.8 0 00-3.552.593A5.213 5.213 0 00.24 21.49a5.498 5.498 0 00.205 3.771 5.132 5.132 0 002.56 2.652c1.137.52 2.418.58 3.594.165a5.07 5.07 0 002.77-2.409l5.639 1.895v7.872l-5.64 1.895a5.061 5.061 0 00-2.765-2.404 4.777 4.777 0 00-3.587.165A5.124 5.124 0 00.459 37.74a5.49 5.49 0 00-.204 3.764 5.205 5.205 0 002.252 2.936 4.792 4.792 0 003.546.592 4.984 4.984 0 003.008-2.058 5.444 5.444 0 00.918-3.645l5.028-1.69v8.12l-7.242 7.604zM5.01 60.888a2.898 2.898 0 01-1.666-.53 3.12 3.12 0 01-1.105-1.414 3.295 3.295 0 01-.17-1.82 3.2 3.2 0 01.82-1.611c.42-.44.954-.74 1.536-.862a2.866 2.866 0 011.732.18 3.035 3.035 0 011.346 1.159c.33.518.505 1.126.505 1.75 0 .834-.317 1.634-.879 2.224a2.932 2.932 0 01-2.12.924zm0-34.636a2.898 2.898 0 01-1.666-.53 3.12 3.12 0 01-1.105-1.414 3.295 3.295 0 01-.17-1.819 3.2 3.2 0 01.82-1.612c.42-.44.954-.74 1.536-.862a2.866 2.866 0 011.732.18 3.035 3.035 0 011.346 1.16c.33.517.505 1.126.505 1.748a3.23 3.23 0 01-.879 2.226 2.932 2.932 0 01-2.12.923zm0 16.793a2.898 2.898 0 01-1.666-.53 3.12 3.12 0 01-1.105-1.413 3.296 3.296 0 01-.17-1.82 3.2 3.2 0 01.82-1.612c.42-.44.954-.74 1.536-.862a2.866 2.866 0 011.732.18 3.035 3.035 0 011.346 1.16c.33.517.505 1.126.505 1.748a3.23 3.23 0 01-.879 2.226 2.932 2.932 0 01-2.12.923zm33.897-10.927a1.037 1.037 0 00-.369-.45.965.965 0 00-.542-.168h-4.741l2.717-12.359c.05-.23.025-.473-.072-.687a1.027 1.027 0 00-.464-.49.957.957 0 00-.653-.083.993.993 0 00-.56.363L21.228 35.035a1.097 1.097 0 00-.127 1.112c.081.18.209.331.368.437.16.106.345.163.534.163h4.578l-4.52 13.291a1.1 1.1 0 00.001.71c.08.23.232.423.432.547a.961.961 0 001.258-.209l14.993-17.843a1.077 1.077 0 00.162-1.126zM25.693 45.605l3.25-9.554a1.1 1.1 0 00-.125-.957 1.017 1.017 0 00-.357-.328.962.962 0 00-.46-.117h-3.897l8.95-11.567-2.029 9.231a1.103 1.103 0 00.192.89c.094.123.213.223.348.292a.96.96 0 00.434.104h3.783l-10.09 12.006zm8.013-40.037l-1.414 1.485A3.168 3.168 0 0030 6.057c-.86 0-1.683.358-2.292.996l-1.413-1.485A5.122 5.122 0 0130 3.96c1.39 0 2.722.579 3.706 1.61zm1.585-1.154a7.47 7.47 0 00-2.428-1.703A7.174 7.174 0 0030 2.113c-.982 0-1.955.203-2.863.598a7.47 7.47 0 00-2.428 1.703l-1.413-1.485C25.076 1.065 27.486.018 30 .018c2.514 0 4.925 1.047 6.704 2.911l-1.413 1.485zM5.01 10.509a4.8 4.8 0 002.754-.872l16.53 17.357 1.414-1.484-8.703-9.139v-2.714c0-.834.317-1.635.879-2.225a2.932 2.932 0 012.12-.923h4.38l.723 1.519c.083.174.21.32.368.423.158.103.34.157.526.157h7.997a.964.964 0 00.525-.157c.158-.102.285-.249.368-.423l.724-1.52h4.38a2.932 2.932 0 012.12.924c.562.59.878 1.39.879 2.225v2.714l-7.704 8.09 1.413 1.484 6.29-6.605v6.692l-6.301 2.117.609 2 5.693-1.913v4.314h1.999v-4.986l5.639-1.895a5.061 5.061 0 002.766 2.404 4.777 4.777 0 003.587-.165 5.123 5.123 0 002.555-2.648 5.489 5.489 0 00.205-3.764 5.205 5.205 0 00-2.253-2.936 4.792 4.792 0 00-3.546-.592 4.984 4.984 0 00-3.008 2.058 5.444 5.444 0 00-.917 3.645l-5.028 1.69v-8.12l7.242-7.604a4.814 4.814 0 003.512.812 4.954 4.954 0 003.124-1.871 5.429 5.429 0 001.122-3.588 5.38 5.38 0 00-1.46-3.451A4.897 4.897 0 0055.247.007a4.85 4.85 0 00-3.416 1.178 5.32 5.32 0 00-1.783 3.28 5.466 5.466 0 00.774 3.688l-5.828 6.12v-.616a5.39 5.39 0 00-1.466-3.709 4.886 4.886 0 00-3.532-1.538H20.004a4.886 4.886 0 00-3.532 1.538 5.39 5.39 0 00-1.466 3.71v.614l-5.828-6.12a5.448 5.448 0 00.811-3.301 5.377 5.377 0 00-1.293-3.128A4.933 4.933 0 005.845.091 4.79 4.79 0 002.64.644 5.156 5.156 0 00.436 3.148a5.489 5.489 0 00-.272 3.398 5.274 5.274 0 001.774 2.856 4.845 4.845 0 003.072 1.107zm49.979 9.446c.593 0 1.172.185 1.666.53a3.12 3.12 0 011.104 1.413c.227.576.286 1.209.17 1.82a3.2 3.2 0 01-.82 1.612c-.42.44-.954.74-1.535.862a2.866 2.866 0 01-1.733-.18 3.035 3.035 0 01-1.346-1.16 3.262 3.262 0 01-.505-1.748c0-.835.317-1.636.88-2.226a2.932 2.932 0 012.119-.923zm0-17.843c.593 0 1.172.185 1.666.53a3.12 3.12 0 011.104 1.414c.227.575.286 1.208.17 1.82a3.2 3.2 0 01-.82 1.611c-.42.44-.954.74-1.535.862a2.866 2.866 0 01-1.733-.18 3.035 3.035 0 01-1.346-1.159 3.262 3.262 0 01-.505-1.75c0-.834.317-1.634.88-2.224a2.932 2.932 0 012.119-.924zm-49.98 0c.594 0 1.174.185 1.667.53A3.12 3.12 0 017.78 4.057c.227.575.286 1.208.17 1.82a3.2 3.2 0 01-.82 1.611c-.42.44-.954.74-1.535.862a2.866 2.866 0 01-1.733-.18 3.035 3.035 0 01-1.345-1.16 3.262 3.262 0 01-.505-1.75c0-.834.317-1.634.88-2.224a2.932 2.932 0 012.119-.924zM54.99 34.65a4.82 4.82 0 00-2.525.72 5.138 5.138 0 00-1.833 1.962L40.301 33.86l-.61 2 3.304 1.11v6.691l-2.464-2.586a3.737 3.737 0 00-2.706-1.177 3.737 3.737 0 00-2.706 1.176A4.122 4.122 0 0034 43.915c0 1.065.403 2.087 1.12 2.84l3.66 3.845-.07.147a12.644 12.644 0 00-1.23 5.775 12.6 12.6 0 001.516 5.7v.765h2v-1.05c0-.19-.05-.377-.143-.54a10.42 10.42 0 01-1.37-4.808 10.474 10.474 0 011.015-4.904l.392-.823c.094-.198.126-.42.093-.638a1.069 1.069 0 00-.28-.574l-4.17-4.378a1.97 1.97 0 01-.526-1.354c.002-.507.195-.992.535-1.35.341-.358.804-.56 1.286-.562.482-.002.946.196 1.29.552l4.17 4.378 2.998 3.149L47.7 48.6l-2.706-2.84v-6.478l4.533 4.76a5.234 5.234 0 011.086 1.701c.252.637.38 1.32.378 2.01v15.234h2V47.753a7.595 7.595 0 00-.881-3.572 4.865 4.865 0 002.159.905 4.77 4.77 0 002.315-.218 4.969 4.969 0 001.97-1.295 5.303 5.303 0 001.2-2.092c.237-.786.295-1.62.168-2.434a5.389 5.389 0 00-.9-2.25 5.068 5.068 0 00-1.771-1.581 4.804 4.804 0 00-2.261-.567zm-8.138 3.615l3.17 1.065c-.096.913.04 1.835.392 2.675l-3.562-3.74zm8.138 4.781a2.898 2.898 0 01-1.666-.53 3.12 3.12 0 01-1.105-1.413 3.295 3.295 0 01-.17-1.82 3.2 3.2 0 01.82-1.612c.42-.44.954-.74 1.536-.862a2.866 2.866 0 011.732.18 3.036 3.036 0 011.346 1.16c.33.517.505 1.126.505 1.748a3.234 3.234 0 01-.879 2.226 2.932 2.932 0 01-2.12.923zM26.002 58.79v-2.1h7.997v2.1h-7.997z" fill="url(#paint0_linear)"/><defs><linearGradient id="paint0_linear" x1="60" y1="0" x2="-1.715" y2="1.727" gradientUnits="userSpaceOnUse"><stop stop-color="#2FE99C"/><stop offset="1" stop-color="#33B8B6"/></linearGradient></defs></svg>