<svg width="41" height="62" fill="none" xmlns="http://www.w3.org/2000/svg"><path d="M1.858 56.82V12.398H0V56.82c0 2.854 2.079 5.166 4.646 5.166h21.371V59.92H4.646c-1.533 0-2.788-1.394-2.788-3.1z" fill="url(#paint0_linear)"/><path d="M12.08 55.788h9.291v2.063H12.08v-2.063z" fill="url(#paint1_linear)"/><path d="M3.717 19.629c0 .568.418 1.033.929 1.033h1.01c.198.607.709 1.033 1.313 1.033s1.115-.426 1.312-1.033h2.021c.198.607.709 1.033 1.313 1.033s1.115-.426 1.312-1.033h1.01c.512 0 .93-.465.93-1.033v-3.1c0-.387-.197-.749-.511-.93l-1.58-.878-.79-1.756c-.162-.349-.476-.568-.836-.568H7.434c-.349 0-.674.22-.837.568l-.79 1.756-1.58.879c-.313.18-.51.53-.51.93v3.099zm1.858-2.467l1.347-.749a1.03 1.03 0 00.419-.465l.673-1.498h2.567l.674 1.498c.093.194.232.362.418.465l1.347.75v1.433H5.587v-1.434h-.012z" fill="url(#paint2_linear)"/><path d="M26.017 11.364v1.37l-1.277-1.137a.868.868 0 00-1.162 0l-4.646 4.132c-.313.271-.43.736-.302 1.15.128.412.488.697.871.697v3.099c0 .568.418 1.033.93 1.033h7.433c.51 0 .929-.465.929-1.033v-3.1c.395 0 .743-.27.871-.697.128-.413.012-.878-.302-1.149l-1.51-1.343v-3.021h-1.835zm.93 5.166v3.099h-1.86v-2.066H23.23v2.066h-1.86v-3.1c0-.103-.011-.206-.035-.296l2.823-2.518 2.822 2.518c-.023.09-.035.193-.035.297z" fill="url(#paint3_linear)"/><path d="M27.83 28.23l.615-1.37h1.289v-2.066h-1.858c-.349 0-.674.22-.837.568l-.673 1.498h-6.853a.91.91 0 00-.72.375 1.154 1.154 0 00-.197.852l.929 5.166c.035.18.116.348.22.49a1.642 1.642 0 00-.232.866c0 .852.627 1.55 1.394 1.55.766 0 1.394-.698 1.394-1.55 0-.181-.035-.35-.082-.517h2.021a1.914 1.914 0 00-.081.517c0 .852.627 1.55 1.394 1.55.766 0 1.393-.698 1.393-1.55 0-.323-.092-.62-.232-.866.105-.129.186-.297.22-.49l.895-5.024zm-2.022.697l-.557 3.099h-4.054l-.557-3.1h5.168z" fill="url(#paint4_linear)"/><path d="M3.717 43.39c0 .569.418 1.034.929 1.034h.93v5.165c0 .569.417 1.033.928 1.033.511 0 .93-.465.93-1.033v-1.033h4.646v1.033c0 .569.418 1.033.929 1.033.51 0 .929-.465.929-1.033v-2.466l.511.284.836-1.847-1.614-.904c-.441-1.059-1.406-1.782-2.52-1.782H8.943l-.035-.258c-.163-1.33-1.197-2.325-2.405-2.325-.51 0-.929.465-.929 1.033v.181l-1.103.232c-.442.09-.755.517-.755 1.02v.633zm3.717 1.202a.878.878 0 00.696.348h3.02c.511 0 .93.465.93 1.033v.517H7.434v-1.898z" fill="url(#paint5_linear)"/><path d="M38.77 38.29l-5.32-6.65V5.165C33.45 2.312 31.372 0 28.806 0H4.645C2.08 0 0 2.312 0 5.166v5.165h1.858V5.166c0-1.705 1.255-3.1 2.788-3.1h24.159c1.533 0 2.787 1.395 2.787 3.1v36.766l-3.031-3.37c-.802-.892-1.859-1.37-2.985-1.37-2.323 0-4.216 2.105-4.216 4.688 0 1.253.441 2.428 1.23 3.319l.245.271H21.37v-2.066h-1.858v3.1c0 .567.418 1.032.929 1.032h2.218l-1.184 2.635 1.66.93 1.592-3.539 2.88 3.203c-1.51 2.75-1.66 6.16-.337 9.091l.616 1.356V62h1.858v-1.033a1.27 1.27 0 00-.093-.465l-.708-1.576c-1.127-2.492-.883-5.436.627-7.67a1.13 1.13 0 00-.081-1.356l-5.54-6.16a2.753 2.753 0 01-.686-1.847c0-1.446 1.057-2.622 2.358-2.622.627 0 1.22.272 1.661.762l4.611 5.127 2.788 3.1 1.312-1.46-2.543-2.802v-9.26l3.937 4.92c1.057 1.331 1.638 3.036 1.638 4.805v17.524h1.858V44.463c0-2.273-.755-4.468-2.114-6.173z" fill="url(#paint6_linear)"/><path d="M3.717 6.185h1.858v2.06H3.717v-2.06z" fill="url(#paint7_linear)"/><path d="M7.434 6.185h1.858v2.06H7.434v-2.06z" fill="url(#paint8_linear)"/><path d="M11.15 6.185h1.858v2.06H11.15v-2.06z" fill="url(#paint9_linear)"/><path d="M10.221 35.122v-3.098h2.788V29.96H10.22v-3.1H8.363v3.099H5.575v2.065h2.788v3.098h1.858z" fill="url(#paint10_linear)"/><defs><linearGradient id="paint0_linear" x1="26.017" y1="12.397" x2="-.758" y2="12.81" gradientUnits="userSpaceOnUse"><stop stop-color="#2FE99C"/><stop offset="1" stop-color="#33B8B6"/></linearGradient><linearGradient id="paint1_linear" x1="21.371" y1="55.788" x2="11.971" y2="57.033" gradientUnits="userSpaceOnUse"><stop stop-color="#2FE99C"/><stop offset="1" stop-color="#33B8B6"/></linearGradient><linearGradient id="paint2_linear" x1="14.867" y1="12.397" x2="3.403" y2="12.801" gradientUnits="userSpaceOnUse"><stop stop-color="#2FE99C"/><stop offset="1" stop-color="#33B8B6"/></linearGradient><linearGradient id="paint3_linear" x1="29.715" y1="11.364" x2="18.263" y2="11.727" gradientUnits="userSpaceOnUse"><stop stop-color="#2FE99C"/><stop offset="1" stop-color="#33B8B6"/></linearGradient><linearGradient id="paint4_linear" x1="29.734" y1="24.794" x2="18.263" y2="25.125" gradientUnits="userSpaceOnUse"><stop stop-color="#2FE99C"/><stop offset="1" stop-color="#33B8B6"/></linearGradient><linearGradient id="paint5_linear" x1="15.285" y1="40.291" x2="3.39" y2="40.682" gradientUnits="userSpaceOnUse"><stop stop-color="#2FE99C"/><stop offset="1" stop-color="#33B8B6"/></linearGradient><linearGradient id="paint6_linear" x1="40.884" y1="0" x2="-1.186" y2=".815" gradientUnits="userSpaceOnUse"><stop stop-color="#2FE99C"/><stop offset="1" stop-color="#33B8B6"/></linearGradient><linearGradient id="paint7_linear" x1="5.575" y1="6.185" x2="3.664" y2="6.235" gradientUnits="userSpaceOnUse"><stop stop-color="#2FE99C"/><stop offset="1" stop-color="#33B8B6"/></linearGradient><linearGradient id="paint8_linear" x1="9.292" y1="6.185" x2="7.381" y2="6.235" gradientUnits="userSpaceOnUse"><stop stop-color="#2FE99C"/><stop offset="1" stop-color="#33B8B6"/></linearGradient><linearGradient id="paint9_linear" x1="13.008" y1="6.185" x2="11.097" y2="6.235" gradientUnits="userSpaceOnUse"><stop stop-color="#2FE99C"/><stop offset="1" stop-color="#33B8B6"/></linearGradient><linearGradient id="paint10_linear" x1="13.009" y1="26.86" x2="5.362" y2="27.063" gradientUnits="userSpaceOnUse"><stop stop-color="#2FE99C"/><stop offset="1" stop-color="#33B8B6"/></linearGradient></defs></svg>