<svg width="20" height="19" fill="none" xmlns="http://www.w3.org/2000/svg"><path d="M16.353 4.402c-1.558-1.484-3.588-2.354-5.767-2.487v-.802h.86c.323 0 .585-.249.585-.556 0-.308-.262-.557-.586-.557h-2.89c-.324 0-.586.25-.586.557 0 .307.262.556.586.556h.859v.802a9.22 9.22 0 00-4.168 1.274l-.557-.53c-.27-.258-.63-.4-1.014-.4s-.744.142-1.015.4l-.847.806a1.316 1.316 0 000 1.924l.56.533a8.195 8.195 0 00-1.357 4.526c0 2.284.934 4.432 2.63 6.047C5.345 18.11 7.6 19 10 19s4.656-.89 6.353-2.505c1.697-1.615 2.631-3.763 2.631-6.047s-.934-4.431-2.63-6.046zm-13.71-.15l.846-.807a.268.268 0 01.186-.073c.04 0 .118.01.185.073l.424.405a9.007 9.007 0 00-1.216 1.157l-.425-.405a.24.24 0 010-.35zM10 17.886c-4.308 0-7.813-3.337-7.813-7.439C2.188 6.347 5.692 3.01 10 3.01s7.812 3.337 7.812 7.438c0 4.102-3.504 7.439-7.812 7.439z" fill="#62D6B3"/><path d="M10 4.053c-3.705 0-6.719 2.87-6.719 6.395 0 3.527 3.014 6.395 6.719 6.395 3.705 0 6.719-2.868 6.719-6.395 0-3.526-3.014-6.395-6.719-6.395zm.586 11.648v-.651c0-.308-.262-.557-.586-.557-.324 0-.586.25-.586.557v.65c-2.592-.26-4.657-2.227-4.93-4.695h.672c.324 0 .586-.25.586-.557 0-.307-.262-.556-.586-.556h-.672c.273-2.469 2.338-4.436 4.93-4.696v.65c0 .308.262.557.586.557.324 0 .586-.249.586-.556v-.65c2.592.26 4.657 2.226 4.93 4.695h-.672c-.324 0-.586.249-.586.556 0 .308.262.557.586.557h.672c-.273 2.468-2.338 4.435-4.93 4.696z" fill="#62D6B3"/><path d="M11.445 10.127h-.826V7.876c0-.308-.263-.557-.586-.557-.324 0-.586.25-.586.557v2.808c0 .307.262.556.586.556h1.412c.324 0 .586-.249.586-.556 0-.308-.262-.557-.586-.557z" fill="#62D6B3"/></svg>