<svg width="30" height="30" fill="none" xmlns="http://www.w3.org/2000/svg"><rect width="30" height="30" rx="5" fill="#0077B7"/><path d="M11.91 20.06H9.215v-8.72h2.695v8.72zm-1.35-9.909C9.7 10.151 9 9.434 9 8.568c0-.416.164-.815.457-1.109a1.557 1.557 0 012.208 0c.292.294.457.693.457 1.11 0 .865-.7 1.582-1.561 1.582zm11.437 9.909h-2.69v-4.245c0-1.011-.02-2.308-1.4-2.308-1.402 0-1.617 1.098-1.617 2.236v4.317h-2.692v-8.72h2.585v1.19h.038c.36-.685 1.239-1.408 2.55-1.408 2.728 0 3.229 1.804 3.229 4.148v4.79h-.003z" fill="#fff"/></svg>