<svg width="30" height="30" fill="none" xmlns="http://www.w3.org/2000/svg"><rect width="30" height="30" rx="5" fill="#8A3AB9"/><path d="M18.94 7h-6.88A4.065 4.065 0 008 11.06v6.88A4.065 4.065 0 0012.06 22h6.88A4.065 4.065 0 0023 17.94v-6.88A4.065 4.065 0 0018.94 7zM15.5 18.601a4.106 4.106 0 01-4.101-4.101 4.106 4.106 0 014.101-4.101 4.106 4.106 0 014.101 4.101 4.106 4.106 0 01-4.101 4.101zm4.2-7.235a1.213 1.213 0 010-2.424c.668 0 1.212.544 1.212 1.212 0 .668-.544 1.212-1.212 1.212z" fill="#fff"/><path d="M15.5 11.278a3.226 3.226 0 00-3.222 3.222 3.226 3.226 0 003.222 3.222 3.226 3.226 0 003.222-3.222 3.226 3.226 0 00-3.222-3.222zm4.2-1.457a.333.333 0 100 .666.333.333 0 000-.666z" fill="#fff"/></svg>