<svg width="15" height="15" fill="none" xmlns="http://www.w3.org/2000/svg"><path d="M10.94 0H4.06A4.065 4.065 0 000 4.06v6.88A4.065 4.065 0 004.06 15h6.88A4.065 4.065 0 0015 10.94V4.06A4.065 4.065 0 0010.94 0zM7.5 11.601A4.106 4.106 0 013.399 7.5 4.106 4.106 0 017.5 3.399 4.106 4.106 0 0111.601 7.5 4.106 4.106 0 017.5 11.601zm4.2-7.235a1.213 1.213 0 010-2.424c.668 0 1.212.544 1.212 1.212 0 .668-.544 1.212-1.213 1.212z" fill="#3AB2B4"/><path d="M7.5 4.278A3.226 3.226 0 004.278 7.5 3.226 3.226 0 007.5 10.722 3.226 3.226 0 0010.722 7.5 3.226 3.226 0 007.5 4.278zm4.2-1.457a.333.333 0 100 .666.333.333 0 000-.666z" fill="#3AB2B4"/></svg>