<svg width="15" height="16" fill="none" xmlns="http://www.w3.org/2000/svg"><path d="M7.485 0C3.357 0 0 3.402 0 7.585c0 1.21.288 2.405.835 3.478l-.801 2.905c-.09.33.003.683.24.926a.945.945 0 00.912.242l2.867-.811a7.426 7.426 0 003.432.845c4.128 0 7.485-3.402 7.485-7.585S11.613 0 7.485 0zm3.877 10.38c-.164.467-.973.918-1.336.952-.363.034-.703.167-2.373-.5-2.013-.804-3.285-2.894-3.383-3.03-.1-.133-.808-1.085-.808-2.075 0-.986.513-1.472.692-1.673a.725.725 0 01.528-.25c.135 0 .266 0 .382.004.138.007.295.015.445.349.176.394.561 1.388.61 1.49.049.099.082.216.015.35-.064.132-.097.215-.198.333-.098.117-.206.262-.296.353-.097.098-.202.208-.086.41.116.2.513.856 1.1 1.387.756.683 1.392.895 1.59.998.2.098.315.083.431-.053.116-.133.494-.584.629-.785.13-.201.262-.167.445-.099.18.064 1.153.55 1.351.652.199.099.33.148.378.232.049.083.049.485-.116.955z" fill="#3AB2B4"/></svg>