<svg width="89" height="32" fill="none" xmlns="http://www.w3.org/2000/svg"><path d="M88.494 11.97c-.698-3.229-2.423-6.07-4.857-8-2.372-1.854-5.212-2.829-8.113-2.785H62.821v2.37h3.737L66.024 32h7.632a23.565 23.565 0 004.964-.534 11.248 11.248 0 005.017-2.251 13.046 13.046 0 003.375-3.955 14.49 14.49 0 001.696-5.112c.053-.474.747-4.74-.214-8.178zm-1.708 6.815c-.533 4.326-2.028 6.637-3.95 8.296-.746.652-4.056 2.549-9.553 2.549h-4.59V3.555h6.938c2.588-.048 5.12.848 7.206 2.549a10.058 10.058 0 012.509 2.986 11.139 11.139 0 011.28 3.828c.694 3.674.16 5.867.16 5.867zM39.55 0c-7.792 0-14.144 7.17-14.144 16s6.352 16 14.144 16c7.793 0 14.145-7.17 14.145-16S47.343 0 39.55 0zm0 29.63c-3.22-.043-6.292-1.502-8.543-4.057-2.252-2.556-3.498-5.998-3.466-9.573a14.67 14.67 0 01.837-5.193 13.57 13.57 0 012.586-4.426 12.042 12.042 0 013.929-2.967A10.99 10.99 0 0139.55 2.37c1.6 0 3.184.355 4.658 1.044a12.042 12.042 0 013.929 2.967 13.57 13.57 0 012.585 4.426c.588 1.652.873 3.417.837 5.193.033 3.575-1.213 7.017-3.465 9.573-2.252 2.555-5.324 4.014-8.544 4.057zM0 3.437V1.363h5.23l9.181 26.726 8.273-24.652h-3.31V1.363h8.968v2.074h-3.79L15.158 32h-1.921L3.577 3.437H0zM59.334.82V32h-2.282V.82h2.282z" fill="#3AB2B4"/></svg>